<svg xmlns="http://www.w3.org/2000/svg" xmlns:xlink="http://www.w3.org/1999/xlink" width="56" zoomAndPan="magnify" viewBox="0 0 42 13.5" height="18" preserveAspectRatio="xMidYMid meet" version="1.0"><defs><g/><clipPath id="af98c21feb"><path d="M 18 8 L 23.417969 8 L 23.417969 12.75 L 18 12.75 Z M 18 8 " clip-rule="nonzero"/></clipPath><clipPath id="c04c1458f0"><path d="M 22 7.6875 L 23.417969 7.6875 L 23.417969 9 L 22 9 Z M 22 7.6875 " clip-rule="nonzero"/></clipPath><clipPath id="5c3a89164b"><path d="M 16.90625 9 L 19 9 L 19 12 L 16.90625 12 Z M 16.90625 9 " clip-rule="nonzero"/></clipPath><clipPath id="ee70c69ac4"><path d="M 17 10 L 20 10 L 20 12.75 L 17 12.75 Z M 17 10 " clip-rule="nonzero"/></clipPath></defs><g clip-path="url(#af98c21feb)"><path fill="#ffffff" d="M 18.625 8.0625 L 18.011719 8.847656 L 18.707031 8.167969 L 20.359375 8.207031 L 19.777344 8.859375 L 20.488281 8.210938 L 20.632812 8.214844 L 21.371094 9.0625 L 19.570312 9.113281 L 18.8125 8.300781 L 19.449219 9.117188 L 18.109375 9.15625 L 19.507812 9.242188 L 20.566406 12.792969 L 19.640625 9.25 L 21.546875 9.359375 L 20.566406 12.792969 L 21.816406 9.378906 L 22.742188 9.433594 L 20.566406 12.792969 L 23.367188 9.15625 L 22.511719 8.0625 Z M 20.761719 8.21875 L 22.222656 8.253906 L 21.726562 9.050781 L 21.667969 9.054688 Z M 22.835938 9.019531 L 21.753906 9.050781 L 22.445312 8.394531 L 22.800781 8.96875 Z M 22.835938 9.019531 " fill-opacity="1" fill-rule="evenodd"/></g><path fill="#ffffff" d="M 17.71875 9.308594 L 17.757812 9.714844 L 17.796875 9.308594 L 18.199219 9.273438 L 17.796875 9.234375 L 17.757812 8.832031 L 17.71875 9.234375 L 17.316406 9.273438 Z M 17.71875 9.308594 " fill-opacity="1" fill-rule="evenodd"/><g clip-path="url(#c04c1458f0)"><path fill="#ffffff" d="M 23.148438 8.109375 L 23.179688 8.46875 L 23.214844 8.109375 L 23.570312 8.078125 L 23.214844 8.042969 L 23.179688 7.6875 L 23.148438 8.042969 L 22.789062 8.078125 Z M 23.148438 8.109375 " fill-opacity="1" fill-rule="evenodd"/></g><g clip-path="url(#5c3a89164b)"><path fill="#ffffff" d="M 17.605469 10.617188 L 18.191406 10.5625 L 17.605469 10.507812 L 17.550781 9.921875 L 17.496094 10.507812 L 16.910156 10.5625 L 17.496094 10.617188 L 17.550781 11.203125 Z M 17.605469 10.617188 " fill-opacity="1" fill-rule="evenodd"/></g><g clip-path="url(#ee70c69ac4)"><path fill="#ffffff" d="M 18.96875 11.480469 L 18.894531 10.65625 L 18.816406 11.480469 L 17.992188 11.558594 L 18.816406 11.632812 L 18.894531 12.457031 L 18.96875 11.632812 L 19.792969 11.558594 Z M 18.96875 11.480469 " fill-opacity="1" fill-rule="evenodd"/></g><g fill="#ffffff" fill-opacity="1"><g transform="translate(2.919643, 5.709667)"><g><path d="M 0.1875 -3.296875 C 0.28125 -3.296875 0.359375 -3.296875 0.421875 -3.296875 C 0.484375 -3.296875 0.535156 -3.296875 0.578125 -3.296875 C 0.617188 -3.296875 0.65625 -3.289062 0.6875 -3.28125 C 0.726562 -3.28125 0.773438 -3.28125 0.828125 -3.28125 C 0.941406 -3.28125 1.0625 -3.285156 1.1875 -3.296875 C 1.320312 -3.304688 1.445312 -3.3125 1.5625 -3.3125 C 1.820312 -3.3125 2.054688 -3.273438 2.265625 -3.203125 C 2.472656 -3.128906 2.648438 -3.019531 2.796875 -2.875 C 2.953125 -2.738281 3.070312 -2.566406 3.15625 -2.359375 C 3.238281 -2.160156 3.28125 -1.929688 3.28125 -1.671875 C 3.28125 -1.128906 3.140625 -0.710938 2.859375 -0.421875 C 2.585938 -0.128906 2.175781 0.015625 1.625 0.015625 C 1.5 0.015625 1.363281 0.0078125 1.21875 0 C 1.082031 -0.0078125 0.953125 -0.015625 0.828125 -0.015625 C 0.773438 -0.015625 0.726562 -0.015625 0.6875 -0.015625 C 0.65625 -0.015625 0.617188 -0.0078125 0.578125 0 C 0.535156 0 0.484375 0 0.421875 0 C 0.359375 0 0.28125 0 0.1875 0 L 0.1875 -0.046875 C 0.238281 -0.046875 0.285156 -0.0507812 0.328125 -0.0625 C 0.378906 -0.0703125 0.421875 -0.0859375 0.453125 -0.109375 C 0.492188 -0.128906 0.523438 -0.160156 0.546875 -0.203125 C 0.566406 -0.242188 0.578125 -0.300781 0.578125 -0.375 L 0.578125 -2.9375 C 0.578125 -3 0.566406 -3.050781 0.546875 -3.09375 C 0.523438 -3.132812 0.492188 -3.164062 0.453125 -3.1875 C 0.421875 -3.21875 0.378906 -3.234375 0.328125 -3.234375 C 0.285156 -3.242188 0.238281 -3.25 0.1875 -3.25 Z M 1.078125 -0.59375 C 1.078125 -0.5 1.082031 -0.414062 1.09375 -0.34375 C 1.113281 -0.28125 1.140625 -0.226562 1.171875 -0.1875 C 1.210938 -0.15625 1.265625 -0.128906 1.328125 -0.109375 C 1.398438 -0.0859375 1.492188 -0.078125 1.609375 -0.078125 C 1.804688 -0.078125 1.972656 -0.113281 2.109375 -0.1875 C 2.253906 -0.269531 2.367188 -0.378906 2.453125 -0.515625 C 2.546875 -0.660156 2.613281 -0.828125 2.65625 -1.015625 C 2.695312 -1.203125 2.71875 -1.398438 2.71875 -1.609375 C 2.71875 -1.816406 2.695312 -2.015625 2.65625 -2.203125 C 2.613281 -2.398438 2.539062 -2.570312 2.4375 -2.71875 C 2.34375 -2.875 2.21875 -3 2.0625 -3.09375 C 1.914062 -3.1875 1.738281 -3.234375 1.53125 -3.234375 C 1.476562 -3.234375 1.425781 -3.226562 1.375 -3.21875 C 1.332031 -3.21875 1.28125 -3.21875 1.21875 -3.21875 C 1.175781 -3.207031 1.140625 -3.191406 1.109375 -3.171875 C 1.085938 -3.148438 1.078125 -3.109375 1.078125 -3.046875 Z M 1.078125 -0.59375 "/></g></g></g><g fill="#ffffff" fill-opacity="1"><g transform="translate(6.434349, 5.709667)"><g><path d="M 0.1875 -3.296875 C 0.28125 -3.296875 0.359375 -3.296875 0.421875 -3.296875 C 0.484375 -3.296875 0.535156 -3.289062 0.578125 -3.28125 C 0.617188 -3.28125 0.65625 -3.28125 0.6875 -3.28125 C 0.726562 -3.28125 0.773438 -3.28125 0.828125 -3.28125 C 0.878906 -3.28125 0.921875 -3.28125 0.953125 -3.28125 C 0.992188 -3.28125 1.035156 -3.28125 1.078125 -3.28125 C 1.128906 -3.289062 1.179688 -3.296875 1.234375 -3.296875 C 1.296875 -3.296875 1.375 -3.296875 1.46875 -3.296875 L 1.46875 -3.25 C 1.414062 -3.25 1.363281 -3.242188 1.3125 -3.234375 C 1.269531 -3.234375 1.226562 -3.21875 1.1875 -3.1875 C 1.15625 -3.164062 1.128906 -3.132812 1.109375 -3.09375 C 1.085938 -3.050781 1.078125 -3 1.078125 -2.9375 L 1.078125 -0.375 C 1.078125 -0.300781 1.085938 -0.242188 1.109375 -0.203125 C 1.128906 -0.160156 1.15625 -0.128906 1.1875 -0.109375 C 1.226562 -0.0859375 1.269531 -0.0703125 1.3125 -0.0625 C 1.363281 -0.0507812 1.414062 -0.046875 1.46875 -0.046875 L 1.46875 0 C 1.375 0 1.296875 0 1.234375 0 C 1.179688 0 1.128906 0 1.078125 0 C 1.035156 -0.0078125 0.992188 -0.015625 0.953125 -0.015625 C 0.921875 -0.015625 0.878906 -0.015625 0.828125 -0.015625 C 0.773438 -0.015625 0.726562 -0.015625 0.6875 -0.015625 C 0.65625 -0.015625 0.617188 -0.0078125 0.578125 0 C 0.535156 0 0.484375 0 0.421875 0 C 0.359375 0 0.28125 0 0.1875 0 L 0.1875 -0.046875 C 0.238281 -0.046875 0.285156 -0.0507812 0.328125 -0.0625 C 0.378906 -0.0703125 0.421875 -0.0859375 0.453125 -0.109375 C 0.492188 -0.128906 0.523438 -0.160156 0.546875 -0.203125 C 0.566406 -0.242188 0.578125 -0.300781 0.578125 -0.375 L 0.578125 -2.9375 C 0.578125 -3 0.566406 -3.050781 0.546875 -3.09375 C 0.523438 -3.132812 0.492188 -3.164062 0.453125 -3.1875 C 0.421875 -3.21875 0.378906 -3.234375 0.328125 -3.234375 C 0.285156 -3.242188 0.238281 -3.25 0.1875 -3.25 Z M 0.1875 -3.296875 "/></g></g></g><g fill="#ffffff" fill-opacity="1"><g transform="translate(8.095308, 5.709667)"><g><path d="M -0.03125 -0.046875 C 0.207031 -0.046875 0.375 -0.171875 0.46875 -0.421875 L 1.578125 -3.375 L 1.671875 -3.375 L 2.78125 -0.4375 C 2.84375 -0.300781 2.90625 -0.203125 2.96875 -0.140625 C 3.039062 -0.078125 3.132812 -0.046875 3.25 -0.046875 L 3.25 0 C 3.15625 0 3.078125 0 3.015625 0 C 2.960938 0 2.914062 0 2.875 0 C 2.832031 -0.0078125 2.789062 -0.015625 2.75 -0.015625 C 2.71875 -0.015625 2.675781 -0.015625 2.625 -0.015625 C 2.582031 -0.015625 2.539062 -0.015625 2.5 -0.015625 C 2.46875 -0.015625 2.429688 -0.0078125 2.390625 0 C 2.347656 0 2.296875 0 2.234375 0 C 2.171875 0 2.085938 0 1.984375 0 L 1.984375 -0.046875 C 2.023438 -0.046875 2.0625 -0.046875 2.09375 -0.046875 C 2.132812 -0.0546875 2.171875 -0.0664062 2.203125 -0.078125 C 2.234375 -0.0976562 2.257812 -0.117188 2.28125 -0.140625 C 2.300781 -0.171875 2.3125 -0.207031 2.3125 -0.25 C 2.3125 -0.289062 2.304688 -0.328125 2.296875 -0.359375 C 2.285156 -0.398438 2.273438 -0.441406 2.265625 -0.484375 L 1.9375 -1.328125 L 0.90625 -1.328125 L 0.578125 -0.421875 C 0.554688 -0.359375 0.546875 -0.304688 0.546875 -0.265625 C 0.546875 -0.222656 0.554688 -0.1875 0.578125 -0.15625 C 0.597656 -0.125 0.625 -0.0976562 0.65625 -0.078125 C 0.6875 -0.0664062 0.71875 -0.0546875 0.75 -0.046875 C 0.789062 -0.046875 0.828125 -0.046875 0.859375 -0.046875 L 0.859375 0 C 0.796875 0 0.738281 0 0.6875 0 C 0.644531 0 0.609375 0 0.578125 0 C 0.554688 -0.0078125 0.53125 -0.015625 0.5 -0.015625 C 0.476562 -0.015625 0.453125 -0.015625 0.421875 -0.015625 C 0.378906 -0.015625 0.347656 -0.015625 0.328125 -0.015625 C 0.304688 -0.015625 0.28125 -0.0078125 0.25 0 C 0.21875 0 0.179688 0 0.140625 0 C 0.0976562 0 0.0390625 0 -0.03125 0 Z M 1.90625 -1.40625 L 1.4375 -2.75 L 0.9375 -1.40625 Z M 1.90625 -1.40625 "/></g></g></g><g fill="#ffffff" fill-opacity="1"><g transform="translate(11.328244, 5.709667)"><g><path d="M 0.15625 -0.046875 C 0.207031 -0.046875 0.253906 -0.0507812 0.296875 -0.0625 C 0.347656 -0.0703125 0.390625 -0.0859375 0.421875 -0.109375 C 0.460938 -0.128906 0.492188 -0.160156 0.515625 -0.203125 C 0.535156 -0.242188 0.546875 -0.300781 0.546875 -0.375 L 0.546875 -2.9375 C 0.546875 -3 0.535156 -3.050781 0.515625 -3.09375 C 0.492188 -3.132812 0.460938 -3.164062 0.421875 -3.1875 C 0.390625 -3.21875 0.347656 -3.234375 0.296875 -3.234375 C 0.253906 -3.242188 0.207031 -3.25 0.15625 -3.25 L 0.15625 -3.296875 C 0.25 -3.296875 0.320312 -3.296875 0.375 -3.296875 C 0.4375 -3.296875 0.484375 -3.296875 0.515625 -3.296875 C 0.554688 -3.296875 0.585938 -3.289062 0.609375 -3.28125 C 0.640625 -3.28125 0.671875 -3.28125 0.703125 -3.28125 C 0.773438 -3.28125 0.832031 -3.28125 0.875 -3.28125 C 0.914062 -3.289062 0.972656 -3.296875 1.046875 -3.296875 L 2.125 -0.765625 L 3.125 -3.296875 C 3.1875 -3.296875 3.234375 -3.289062 3.265625 -3.28125 C 3.304688 -3.28125 3.367188 -3.28125 3.453125 -3.28125 C 3.492188 -3.28125 3.523438 -3.28125 3.546875 -3.28125 C 3.578125 -3.289062 3.613281 -3.296875 3.65625 -3.296875 C 3.695312 -3.296875 3.742188 -3.296875 3.796875 -3.296875 C 3.847656 -3.296875 3.925781 -3.296875 4.03125 -3.296875 L 4.03125 -3.25 C 3.96875 -3.25 3.910156 -3.242188 3.859375 -3.234375 C 3.816406 -3.234375 3.773438 -3.21875 3.734375 -3.1875 C 3.703125 -3.164062 3.675781 -3.132812 3.65625 -3.09375 C 3.632812 -3.050781 3.625 -3 3.625 -2.9375 L 3.625 -0.375 C 3.625 -0.300781 3.632812 -0.242188 3.65625 -0.203125 C 3.675781 -0.160156 3.703125 -0.128906 3.734375 -0.109375 C 3.773438 -0.0859375 3.816406 -0.0703125 3.859375 -0.0625 C 3.910156 -0.0507812 3.96875 -0.046875 4.03125 -0.046875 L 4.03125 0 C 3.925781 0 3.84375 0 3.78125 0 C 3.726562 0 3.675781 0 3.625 0 C 3.582031 -0.0078125 3.539062 -0.015625 3.5 -0.015625 C 3.46875 -0.015625 3.425781 -0.015625 3.375 -0.015625 C 3.320312 -0.015625 3.273438 -0.015625 3.234375 -0.015625 C 3.203125 -0.015625 3.164062 -0.0078125 3.125 0 C 3.082031 0 3.03125 0 2.96875 0 C 2.90625 0 2.828125 0 2.734375 0 L 2.734375 -0.046875 C 2.785156 -0.046875 2.832031 -0.0507812 2.875 -0.0625 C 2.925781 -0.0703125 2.96875 -0.0859375 3 -0.109375 C 3.039062 -0.128906 3.070312 -0.160156 3.09375 -0.203125 C 3.113281 -0.242188 3.125 -0.300781 3.125 -0.375 L 3.125 -3.03125 L 1.921875 0 L 1.90625 0 L 0.640625 -2.953125 L 0.640625 -0.375 C 0.640625 -0.300781 0.648438 -0.242188 0.671875 -0.203125 C 0.703125 -0.160156 0.734375 -0.128906 0.765625 -0.109375 C 0.796875 -0.0859375 0.835938 -0.0703125 0.890625 -0.0625 C 0.941406 -0.0507812 0.992188 -0.046875 1.046875 -0.046875 L 1.046875 0 C 0.972656 0 0.914062 0 0.875 0 C 0.832031 0 0.796875 0 0.765625 0 C 0.742188 -0.0078125 0.71875 -0.015625 0.6875 -0.015625 C 0.664062 -0.015625 0.632812 -0.015625 0.59375 -0.015625 C 0.5625 -0.015625 0.53125 -0.015625 0.5 -0.015625 C 0.476562 -0.015625 0.453125 -0.0078125 0.421875 0 C 0.390625 0 0.351562 0 0.3125 0 C 0.269531 0 0.21875 0 0.15625 0 Z M 0.15625 -0.046875 "/></g></g></g><g fill="#ffffff" fill-opacity="1"><g transform="translate(15.539961, 5.709667)"><g><path d="M 1.984375 -3.359375 C 2.222656 -3.359375 2.445312 -3.316406 2.65625 -3.234375 C 2.863281 -3.160156 3.046875 -3.046875 3.203125 -2.890625 C 3.367188 -2.742188 3.5 -2.5625 3.59375 -2.34375 C 3.6875 -2.132812 3.734375 -1.898438 3.734375 -1.640625 C 3.734375 -1.378906 3.6875 -1.140625 3.59375 -0.921875 C 3.5 -0.710938 3.375 -0.535156 3.21875 -0.390625 C 3.0625 -0.242188 2.875 -0.128906 2.65625 -0.046875 C 2.445312 0.0234375 2.222656 0.0625 1.984375 0.0625 C 1.734375 0.0625 1.5 0.0234375 1.28125 -0.046875 C 1.070312 -0.128906 0.882812 -0.242188 0.71875 -0.390625 C 0.5625 -0.546875 0.4375 -0.726562 0.34375 -0.9375 C 0.257812 -1.15625 0.21875 -1.394531 0.21875 -1.65625 C 0.21875 -1.90625 0.257812 -2.132812 0.34375 -2.34375 C 0.4375 -2.550781 0.5625 -2.726562 0.71875 -2.875 C 0.875 -3.03125 1.0625 -3.148438 1.28125 -3.234375 C 1.5 -3.316406 1.734375 -3.359375 1.984375 -3.359375 Z M 1.984375 -3.28125 C 1.785156 -3.28125 1.613281 -3.234375 1.46875 -3.140625 C 1.320312 -3.046875 1.195312 -2.921875 1.09375 -2.765625 C 0.988281 -2.617188 0.910156 -2.445312 0.859375 -2.25 C 0.816406 -2.050781 0.796875 -1.847656 0.796875 -1.640625 C 0.796875 -1.421875 0.816406 -1.210938 0.859375 -1.015625 C 0.910156 -0.816406 0.988281 -0.644531 1.09375 -0.5 C 1.195312 -0.351562 1.320312 -0.234375 1.46875 -0.140625 C 1.613281 -0.0546875 1.785156 -0.015625 1.984375 -0.015625 C 2.171875 -0.015625 2.335938 -0.0546875 2.484375 -0.140625 C 2.628906 -0.222656 2.75 -0.335938 2.84375 -0.484375 C 2.945312 -0.628906 3.023438 -0.800781 3.078125 -1 C 3.140625 -1.195312 3.171875 -1.410156 3.171875 -1.640625 C 3.171875 -1.867188 3.140625 -2.082031 3.078125 -2.28125 C 3.023438 -2.476562 2.945312 -2.648438 2.84375 -2.796875 C 2.75 -2.941406 2.628906 -3.054688 2.484375 -3.140625 C 2.335938 -3.234375 2.171875 -3.28125 1.984375 -3.28125 Z M 1.984375 -3.28125 "/></g></g></g><g fill="#ffffff" fill-opacity="1"><g transform="translate(19.504512, 5.709667)"><g><path d="M 0.234375 -0.046875 C 0.285156 -0.046875 0.332031 -0.0507812 0.375 -0.0625 C 0.425781 -0.0703125 0.46875 -0.0859375 0.5 -0.109375 C 0.539062 -0.128906 0.570312 -0.160156 0.59375 -0.203125 C 0.613281 -0.242188 0.625 -0.300781 0.625 -0.375 L 0.625 -2.90625 L 0.515625 -3.046875 C 0.472656 -3.109375 0.421875 -3.15625 0.359375 -3.1875 C 0.304688 -3.226562 0.238281 -3.25 0.15625 -3.25 L 0.15625 -3.296875 C 0.21875 -3.296875 0.269531 -3.296875 0.3125 -3.296875 C 0.351562 -3.296875 0.390625 -3.296875 0.421875 -3.296875 C 0.460938 -3.296875 0.492188 -3.289062 0.515625 -3.28125 C 0.546875 -3.28125 0.578125 -3.28125 0.609375 -3.28125 C 0.648438 -3.28125 0.679688 -3.28125 0.703125 -3.28125 C 0.722656 -3.289062 0.742188 -3.296875 0.765625 -3.296875 C 0.796875 -3.296875 0.820312 -3.296875 0.84375 -3.296875 C 0.875 -3.296875 0.90625 -3.296875 0.9375 -3.296875 L 3 -0.78125 L 3 -2.9375 C 3 -3 2.988281 -3.050781 2.96875 -3.09375 C 2.945312 -3.132812 2.914062 -3.164062 2.875 -3.1875 C 2.84375 -3.21875 2.800781 -3.234375 2.75 -3.234375 C 2.707031 -3.242188 2.660156 -3.25 2.609375 -3.25 L 2.609375 -3.296875 C 2.671875 -3.296875 2.71875 -3.296875 2.75 -3.296875 C 2.789062 -3.296875 2.828125 -3.296875 2.859375 -3.296875 C 2.890625 -3.296875 2.914062 -3.289062 2.9375 -3.28125 C 2.96875 -3.28125 3.003906 -3.28125 3.046875 -3.28125 C 3.078125 -3.28125 3.101562 -3.28125 3.125 -3.28125 C 3.15625 -3.289062 3.1875 -3.296875 3.21875 -3.296875 C 3.25 -3.296875 3.285156 -3.296875 3.328125 -3.296875 C 3.367188 -3.296875 3.421875 -3.296875 3.484375 -3.296875 L 3.484375 -3.25 C 3.429688 -3.25 3.378906 -3.242188 3.328125 -3.234375 C 3.285156 -3.234375 3.242188 -3.21875 3.203125 -3.1875 C 3.171875 -3.164062 3.144531 -3.132812 3.125 -3.09375 C 3.101562 -3.050781 3.09375 -3 3.09375 -2.9375 L 3.09375 0.0625 L 3 0.0625 L 0.71875 -2.796875 L 0.71875 -0.375 C 0.71875 -0.300781 0.726562 -0.242188 0.75 -0.203125 C 0.769531 -0.160156 0.796875 -0.128906 0.828125 -0.109375 C 0.867188 -0.0859375 0.910156 -0.0703125 0.953125 -0.0625 C 1.003906 -0.0507812 1.054688 -0.046875 1.109375 -0.046875 L 1.109375 0 C 1.046875 0 0.992188 0 0.953125 0 C 0.910156 0 0.875 0 0.84375 0 C 0.820312 -0.0078125 0.796875 -0.015625 0.765625 -0.015625 C 0.734375 -0.015625 0.703125 -0.015625 0.671875 -0.015625 C 0.628906 -0.015625 0.59375 -0.015625 0.5625 -0.015625 C 0.539062 -0.015625 0.515625 -0.0078125 0.484375 0 C 0.460938 0 0.429688 0 0.390625 0 C 0.347656 0 0.296875 0 0.234375 0 Z M 0.234375 -0.046875 "/></g></g></g><g fill="#ffffff" fill-opacity="1"><g transform="translate(23.152689, 5.709667)"><g><path d="M 0.1875 -3.296875 C 0.28125 -3.296875 0.359375 -3.296875 0.421875 -3.296875 C 0.484375 -3.296875 0.535156 -3.296875 0.578125 -3.296875 C 0.617188 -3.296875 0.65625 -3.289062 0.6875 -3.28125 C 0.726562 -3.28125 0.773438 -3.28125 0.828125 -3.28125 C 0.941406 -3.28125 1.0625 -3.285156 1.1875 -3.296875 C 1.320312 -3.304688 1.445312 -3.3125 1.5625 -3.3125 C 1.820312 -3.3125 2.054688 -3.273438 2.265625 -3.203125 C 2.472656 -3.128906 2.648438 -3.019531 2.796875 -2.875 C 2.953125 -2.738281 3.070312 -2.566406 3.15625 -2.359375 C 3.238281 -2.160156 3.28125 -1.929688 3.28125 -1.671875 C 3.28125 -1.128906 3.140625 -0.710938 2.859375 -0.421875 C 2.585938 -0.128906 2.175781 0.015625 1.625 0.015625 C 1.5 0.015625 1.363281 0.0078125 1.21875 0 C 1.082031 -0.0078125 0.953125 -0.015625 0.828125 -0.015625 C 0.773438 -0.015625 0.726562 -0.015625 0.6875 -0.015625 C 0.65625 -0.015625 0.617188 -0.0078125 0.578125 0 C 0.535156 0 0.484375 0 0.421875 0 C 0.359375 0 0.28125 0 0.1875 0 L 0.1875 -0.046875 C 0.238281 -0.046875 0.285156 -0.0507812 0.328125 -0.0625 C 0.378906 -0.0703125 0.421875 -0.0859375 0.453125 -0.109375 C 0.492188 -0.128906 0.523438 -0.160156 0.546875 -0.203125 C 0.566406 -0.242188 0.578125 -0.300781 0.578125 -0.375 L 0.578125 -2.9375 C 0.578125 -3 0.566406 -3.050781 0.546875 -3.09375 C 0.523438 -3.132812 0.492188 -3.164062 0.453125 -3.1875 C 0.421875 -3.21875 0.378906 -3.234375 0.328125 -3.234375 C 0.285156 -3.242188 0.238281 -3.25 0.1875 -3.25 Z M 1.078125 -0.59375 C 1.078125 -0.5 1.082031 -0.414062 1.09375 -0.34375 C 1.113281 -0.28125 1.140625 -0.226562 1.171875 -0.1875 C 1.210938 -0.15625 1.265625 -0.128906 1.328125 -0.109375 C 1.398438 -0.0859375 1.492188 -0.078125 1.609375 -0.078125 C 1.804688 -0.078125 1.972656 -0.113281 2.109375 -0.1875 C 2.253906 -0.269531 2.367188 -0.378906 2.453125 -0.515625 C 2.546875 -0.660156 2.613281 -0.828125 2.65625 -1.015625 C 2.695312 -1.203125 2.71875 -1.398438 2.71875 -1.609375 C 2.71875 -1.816406 2.695312 -2.015625 2.65625 -2.203125 C 2.613281 -2.398438 2.539062 -2.570312 2.4375 -2.71875 C 2.34375 -2.875 2.21875 -3 2.0625 -3.09375 C 1.914062 -3.1875 1.738281 -3.234375 1.53125 -3.234375 C 1.476562 -3.234375 1.425781 -3.226562 1.375 -3.21875 C 1.332031 -3.21875 1.28125 -3.21875 1.21875 -3.21875 C 1.175781 -3.207031 1.140625 -3.191406 1.109375 -3.171875 C 1.085938 -3.148438 1.078125 -3.109375 1.078125 -3.046875 Z M 1.078125 -0.59375 "/></g></g></g><g fill="#ffffff" fill-opacity="1"><g transform="translate(26.667395, 5.709667)"><g/></g></g><g fill="#ffffff" fill-opacity="1"><g transform="translate(27.819191, 5.709667)"><g><path d="M 3.0625 -3.234375 C 3.0625 -3.148438 3.0625 -3.070312 3.0625 -3 C 3.0625 -2.925781 3.0625 -2.859375 3.0625 -2.796875 C 3.0625 -2.710938 3.0625 -2.628906 3.0625 -2.546875 C 3.070312 -2.460938 3.078125 -2.375 3.078125 -2.28125 L 3.015625 -2.28125 C 2.992188 -2.582031 2.890625 -2.820312 2.703125 -3 C 2.515625 -3.1875 2.257812 -3.28125 1.9375 -3.28125 C 1.800781 -3.28125 1.664062 -3.242188 1.53125 -3.171875 C 1.394531 -3.097656 1.269531 -2.988281 1.15625 -2.84375 C 1.050781 -2.707031 0.960938 -2.535156 0.890625 -2.328125 C 0.828125 -2.117188 0.796875 -1.878906 0.796875 -1.609375 C 0.796875 -1.453125 0.8125 -1.28125 0.84375 -1.09375 C 0.882812 -0.90625 0.953125 -0.734375 1.046875 -0.578125 C 1.140625 -0.421875 1.257812 -0.289062 1.40625 -0.1875 C 1.550781 -0.0820312 1.726562 -0.03125 1.9375 -0.03125 C 2.101562 -0.03125 2.253906 -0.0546875 2.390625 -0.109375 C 2.523438 -0.160156 2.640625 -0.234375 2.734375 -0.328125 C 2.828125 -0.421875 2.898438 -0.535156 2.953125 -0.671875 C 3.015625 -0.804688 3.050781 -0.957031 3.0625 -1.125 L 3.109375 -1.125 C 3.109375 -1.03125 3.101562 -0.929688 3.09375 -0.828125 C 3.09375 -0.722656 3.09375 -0.640625 3.09375 -0.578125 C 3.09375 -0.535156 3.09375 -0.5 3.09375 -0.46875 C 3.09375 -0.445312 3.09375 -0.414062 3.09375 -0.375 C 3.101562 -0.34375 3.109375 -0.300781 3.109375 -0.25 C 3.109375 -0.195312 3.109375 -0.132812 3.109375 -0.0625 L 3.0625 -0.0625 L 2.953125 -0.265625 C 2.921875 -0.242188 2.875 -0.210938 2.8125 -0.171875 C 2.757812 -0.140625 2.691406 -0.101562 2.609375 -0.0625 C 2.523438 -0.03125 2.425781 -0.00390625 2.3125 0.015625 C 2.195312 0.046875 2.070312 0.0625 1.9375 0.0625 C 1.6875 0.0625 1.457031 0.0234375 1.25 -0.046875 C 1.039062 -0.117188 0.859375 -0.226562 0.703125 -0.375 C 0.554688 -0.519531 0.4375 -0.695312 0.34375 -0.90625 C 0.257812 -1.125 0.21875 -1.375 0.21875 -1.65625 C 0.21875 -1.894531 0.257812 -2.113281 0.34375 -2.3125 C 0.4375 -2.519531 0.5625 -2.703125 0.71875 -2.859375 C 0.875 -3.015625 1.054688 -3.132812 1.265625 -3.21875 C 1.472656 -3.3125 1.703125 -3.359375 1.953125 -3.359375 C 2.128906 -3.359375 2.296875 -3.332031 2.453125 -3.28125 C 2.617188 -3.226562 2.773438 -3.15625 2.921875 -3.0625 L 3.015625 -3.234375 Z M 3.0625 -3.234375 "/></g></g></g><g fill="#ffffff" fill-opacity="1"><g transform="translate(31.185598, 5.709667)"><g><path d="M 0.1875 -3.296875 C 0.28125 -3.296875 0.359375 -3.296875 0.421875 -3.296875 C 0.484375 -3.296875 0.535156 -3.289062 0.578125 -3.28125 C 0.617188 -3.28125 0.65625 -3.28125 0.6875 -3.28125 C 0.726562 -3.28125 0.773438 -3.28125 0.828125 -3.28125 C 0.878906 -3.28125 0.921875 -3.28125 0.953125 -3.28125 C 0.992188 -3.28125 1.035156 -3.28125 1.078125 -3.28125 C 1.128906 -3.289062 1.179688 -3.296875 1.234375 -3.296875 C 1.296875 -3.296875 1.375 -3.296875 1.46875 -3.296875 L 1.46875 -3.25 C 1.414062 -3.25 1.363281 -3.242188 1.3125 -3.234375 C 1.269531 -3.234375 1.226562 -3.21875 1.1875 -3.1875 C 1.15625 -3.164062 1.128906 -3.132812 1.109375 -3.09375 C 1.085938 -3.050781 1.078125 -3 1.078125 -2.9375 L 1.078125 -0.375 C 1.078125 -0.300781 1.085938 -0.242188 1.109375 -0.203125 C 1.128906 -0.160156 1.15625 -0.128906 1.1875 -0.109375 C 1.226562 -0.0859375 1.269531 -0.0703125 1.3125 -0.0625 C 1.363281 -0.0507812 1.414062 -0.046875 1.46875 -0.046875 L 1.46875 0 C 1.375 0 1.296875 0 1.234375 0 C 1.179688 0 1.128906 0 1.078125 0 C 1.035156 -0.0078125 0.992188 -0.015625 0.953125 -0.015625 C 0.921875 -0.015625 0.878906 -0.015625 0.828125 -0.015625 C 0.773438 -0.015625 0.726562 -0.015625 0.6875 -0.015625 C 0.65625 -0.015625 0.617188 -0.0078125 0.578125 0 C 0.535156 0 0.484375 0 0.421875 0 C 0.359375 0 0.28125 0 0.1875 0 L 0.1875 -0.046875 C 0.238281 -0.046875 0.285156 -0.0507812 0.328125 -0.0625 C 0.378906 -0.0703125 0.421875 -0.0859375 0.453125 -0.109375 C 0.492188 -0.128906 0.523438 -0.160156 0.546875 -0.203125 C 0.566406 -0.242188 0.578125 -0.300781 0.578125 -0.375 L 0.578125 -2.9375 C 0.578125 -3 0.566406 -3.050781 0.546875 -3.09375 C 0.523438 -3.132812 0.492188 -3.164062 0.453125 -3.1875 C 0.421875 -3.21875 0.378906 -3.234375 0.328125 -3.234375 C 0.285156 -3.242188 0.238281 -3.25 0.1875 -3.25 Z M 0.1875 -3.296875 "/></g></g></g><g fill="#ffffff" fill-opacity="1"><g transform="translate(32.846556, 5.709667)"><g><path d="M 0.875 -0.046875 C 0.925781 -0.046875 0.972656 -0.0507812 1.015625 -0.0625 C 1.066406 -0.0703125 1.109375 -0.0859375 1.140625 -0.109375 C 1.179688 -0.128906 1.210938 -0.160156 1.234375 -0.203125 C 1.265625 -0.242188 1.28125 -0.300781 1.28125 -0.375 L 1.28125 -3.203125 C 1.09375 -3.210938 0.957031 -3.21875 0.875 -3.21875 C 0.789062 -3.226562 0.738281 -3.234375 0.71875 -3.234375 C 0.519531 -3.222656 0.378906 -3.160156 0.296875 -3.046875 C 0.210938 -2.929688 0.160156 -2.78125 0.140625 -2.59375 L 0.09375 -2.59375 L 0.125 -3.3125 C 0.195312 -3.3125 0.265625 -3.3125 0.328125 -3.3125 C 0.390625 -3.3125 0.453125 -3.3125 0.515625 -3.3125 C 0.648438 -3.3125 0.765625 -3.3125 0.859375 -3.3125 C 0.953125 -3.3125 1.035156 -3.304688 1.109375 -3.296875 C 1.191406 -3.296875 1.265625 -3.296875 1.328125 -3.296875 C 1.390625 -3.296875 1.453125 -3.296875 1.515625 -3.296875 C 1.578125 -3.296875 1.640625 -3.296875 1.703125 -3.296875 C 1.765625 -3.296875 1.835938 -3.296875 1.921875 -3.296875 C 2.003906 -3.304688 2.09375 -3.3125 2.1875 -3.3125 C 2.289062 -3.3125 2.410156 -3.3125 2.546875 -3.3125 C 2.609375 -3.3125 2.671875 -3.3125 2.734375 -3.3125 C 2.796875 -3.3125 2.867188 -3.3125 2.953125 -3.3125 L 2.984375 -2.59375 L 2.921875 -2.59375 C 2.921875 -2.675781 2.90625 -2.753906 2.875 -2.828125 C 2.851562 -2.910156 2.816406 -2.976562 2.765625 -3.03125 C 2.722656 -3.09375 2.664062 -3.140625 2.59375 -3.171875 C 2.53125 -3.210938 2.445312 -3.234375 2.34375 -3.234375 C 2.332031 -3.234375 2.28125 -3.226562 2.1875 -3.21875 C 2.101562 -3.21875 1.96875 -3.210938 1.78125 -3.203125 L 1.78125 -0.375 C 1.78125 -0.300781 1.789062 -0.242188 1.8125 -0.203125 C 1.832031 -0.160156 1.859375 -0.128906 1.890625 -0.109375 C 1.929688 -0.0859375 1.972656 -0.0703125 2.015625 -0.0625 C 2.066406 -0.0507812 2.117188 -0.046875 2.171875 -0.046875 L 2.171875 0 C 2.078125 0 2 0 1.9375 0 C 1.875 0 1.820312 0 1.78125 0 C 1.738281 -0.0078125 1.695312 -0.015625 1.65625 -0.015625 C 1.625 -0.015625 1.582031 -0.015625 1.53125 -0.015625 C 1.46875 -0.015625 1.414062 -0.015625 1.375 -0.015625 C 1.34375 -0.015625 1.304688 -0.0078125 1.265625 0 C 1.222656 0 1.171875 0 1.109375 0 C 1.054688 0 0.976562 0 0.875 0 Z M 0.875 -0.046875 "/></g></g></g><g fill="#ffffff" fill-opacity="1"><g transform="translate(35.926253, 5.709667)"><g><path d="M 0.921875 -0.046875 C 0.972656 -0.046875 1.019531 -0.0507812 1.0625 -0.0625 C 1.113281 -0.0703125 1.15625 -0.0859375 1.1875 -0.109375 C 1.226562 -0.128906 1.257812 -0.160156 1.28125 -0.203125 C 1.300781 -0.242188 1.3125 -0.300781 1.3125 -0.375 L 1.3125 -1.40625 L 0.5 -2.84375 C 0.457031 -2.925781 0.421875 -2.988281 0.390625 -3.03125 C 0.359375 -3.082031 0.328125 -3.125 0.296875 -3.15625 C 0.265625 -3.1875 0.226562 -3.207031 0.1875 -3.21875 C 0.144531 -3.238281 0.09375 -3.25 0.03125 -3.25 L 0.03125 -3.296875 C 0.101562 -3.296875 0.164062 -3.296875 0.21875 -3.296875 C 0.28125 -3.296875 0.332031 -3.289062 0.375 -3.28125 C 0.414062 -3.28125 0.453125 -3.28125 0.484375 -3.28125 C 0.523438 -3.28125 0.578125 -3.28125 0.640625 -3.28125 C 0.691406 -3.28125 0.734375 -3.28125 0.765625 -3.28125 C 0.804688 -3.28125 0.847656 -3.28125 0.890625 -3.28125 C 0.929688 -3.289062 0.976562 -3.296875 1.03125 -3.296875 C 1.09375 -3.296875 1.164062 -3.296875 1.25 -3.296875 L 1.25 -3.25 C 1.21875 -3.25 1.1875 -3.25 1.15625 -3.25 C 1.125 -3.25 1.09375 -3.238281 1.0625 -3.21875 C 1.03125 -3.207031 1.003906 -3.191406 0.984375 -3.171875 C 0.972656 -3.148438 0.96875 -3.117188 0.96875 -3.078125 C 0.96875 -3.023438 0.972656 -2.976562 0.984375 -2.9375 C 1.003906 -2.90625 1.03125 -2.863281 1.0625 -2.8125 L 1.75 -1.546875 L 2.515625 -2.8125 C 2.554688 -2.894531 2.578125 -2.960938 2.578125 -3.015625 C 2.578125 -3.117188 2.546875 -3.179688 2.484375 -3.203125 C 2.429688 -3.234375 2.363281 -3.25 2.28125 -3.25 L 2.28125 -3.296875 C 2.351562 -3.296875 2.410156 -3.296875 2.453125 -3.296875 C 2.492188 -3.296875 2.53125 -3.296875 2.5625 -3.296875 C 2.59375 -3.296875 2.617188 -3.289062 2.640625 -3.28125 C 2.660156 -3.28125 2.679688 -3.28125 2.703125 -3.28125 C 2.734375 -3.28125 2.757812 -3.28125 2.78125 -3.28125 C 2.8125 -3.289062 2.835938 -3.296875 2.859375 -3.296875 C 2.890625 -3.296875 2.925781 -3.296875 2.96875 -3.296875 C 3.007812 -3.296875 3.0625 -3.296875 3.125 -3.296875 L 3.125 -3.25 C 3.0625 -3.25 3.007812 -3.238281 2.96875 -3.21875 C 2.925781 -3.207031 2.882812 -3.1875 2.84375 -3.15625 C 2.8125 -3.125 2.78125 -3.085938 2.75 -3.046875 C 2.726562 -3.003906 2.703125 -2.953125 2.671875 -2.890625 L 1.828125 -1.484375 L 1.828125 -0.375 C 1.828125 -0.300781 1.835938 -0.242188 1.859375 -0.203125 C 1.878906 -0.160156 1.90625 -0.128906 1.9375 -0.109375 C 1.976562 -0.0859375 2.019531 -0.0703125 2.0625 -0.0625 C 2.113281 -0.0507812 2.164062 -0.046875 2.21875 -0.046875 L 2.21875 0 C 2.113281 0 2.03125 0 1.96875 0 C 1.914062 0 1.867188 0 1.828125 0 C 1.785156 -0.0078125 1.742188 -0.015625 1.703125 -0.015625 C 1.671875 -0.015625 1.625 -0.015625 1.5625 -0.015625 C 1.507812 -0.015625 1.460938 -0.015625 1.421875 -0.015625 C 1.390625 -0.015625 1.351562 -0.0078125 1.3125 0 C 1.269531 0 1.21875 0 1.15625 0 C 1.101562 0 1.023438 0 0.921875 0 Z M 0.921875 -0.046875 "/></g></g></g><g fill="#ffffff" fill-opacity="1"><g transform="translate(7.168651, 10.727185)"><g><path d="M 0.4375 0.015625 C 0.3125 0.015625 0.210938 -0.015625 0.140625 -0.078125 C 0.0664062 -0.140625 0.03125 -0.234375 0.03125 -0.359375 L 0.203125 -0.40625 C 0.191406 -0.3125 0.207031 -0.238281 0.25 -0.1875 C 0.300781 -0.144531 0.363281 -0.125 0.4375 -0.125 C 0.46875 -0.125 0.5 -0.128906 0.53125 -0.140625 C 0.570312 -0.160156 0.601562 -0.191406 0.625 -0.234375 C 0.644531 -0.273438 0.65625 -0.332031 0.65625 -0.40625 L 0.65625 -1.28125 L 0.828125 -1.28125 L 0.828125 -0.40625 C 0.828125 -0.269531 0.789062 -0.164062 0.71875 -0.09375 C 0.65625 -0.0195312 0.5625 0.015625 0.4375 0.015625 Z M 0.4375 0.015625 "/></g></g></g><g fill="#ffffff" fill-opacity="1"><g transform="translate(8.152229, 10.727185)"><g><path d="M 0.140625 0 L 0.140625 -1.28125 L 1.015625 -1.28125 L 1.015625 -1.125 L 0.328125 -1.125 L 0.328125 -0.734375 L 0.84375 -0.734375 L 0.84375 -0.578125 L 0.328125 -0.578125 L 0.328125 -0.15625 L 1.015625 -0.15625 L 1.015625 0 Z M 0.140625 0 "/></g></g></g><g fill="#ffffff" fill-opacity="1"><g transform="translate(9.245736, 10.727185)"><g><path d="M 0.34375 0 L 0.015625 -1.28125 L 0.21875 -1.28125 L 0.46875 -0.21875 L 0.703125 -1.28125 L 0.90625 -1.28125 L 1.140625 -0.21875 L 1.390625 -1.28125 L 1.59375 -1.28125 L 1.28125 0 L 1.0625 0 L 0.8125 -1.0625 L 0.5625 0 Z M 0.34375 0 "/></g></g></g><g fill="#ffffff" fill-opacity="1"><g transform="translate(10.865749, 10.727185)"><g><path d="M 0.140625 0 L 0.140625 -1.28125 L 1.015625 -1.28125 L 1.015625 -1.125 L 0.328125 -1.125 L 0.328125 -0.734375 L 0.84375 -0.734375 L 0.84375 -0.578125 L 0.328125 -0.578125 L 0.328125 -0.15625 L 1.015625 -0.15625 L 1.015625 0 Z M 0.140625 0 "/></g></g></g><g fill="#ffffff" fill-opacity="1"><g transform="translate(11.959256, 10.727185)"><g><path d="M 0.140625 0 L 0.140625 -1.28125 L 0.328125 -1.28125 L 0.328125 -0.15625 L 1.015625 -0.15625 L 1.015625 0 Z M 0.140625 0 "/></g></g></g><g fill="#ffffff" fill-opacity="1"><g transform="translate(12.998764, 10.727185)"><g><path d="M 0.140625 0 L 0.140625 -1.28125 L 0.546875 -1.28125 C 0.660156 -1.28125 0.753906 -1.269531 0.828125 -1.25 C 0.910156 -1.238281 0.972656 -1.203125 1.015625 -1.140625 C 1.066406 -1.085938 1.09375 -1.015625 1.09375 -0.921875 C 1.09375 -0.859375 1.082031 -0.800781 1.0625 -0.75 C 1.039062 -0.695312 1.003906 -0.65625 0.953125 -0.625 C 0.898438 -0.59375 0.828125 -0.566406 0.734375 -0.546875 L 1.125 0 L 0.90625 0 L 0.515625 -0.546875 L 0.328125 -0.546875 L 0.328125 0 Z M 0.328125 -0.6875 L 0.5625 -0.6875 C 0.625 -0.6875 0.679688 -0.691406 0.734375 -0.703125 C 0.785156 -0.710938 0.828125 -0.734375 0.859375 -0.765625 C 0.890625 -0.796875 0.90625 -0.84375 0.90625 -0.90625 C 0.90625 -0.976562 0.890625 -1.03125 0.859375 -1.0625 C 0.828125 -1.09375 0.785156 -1.109375 0.734375 -1.109375 C 0.679688 -1.117188 0.625 -1.125 0.5625 -1.125 L 0.328125 -1.125 Z M 0.328125 -0.6875 "/></g></g></g><g fill="#ffffff" fill-opacity="1"><g transform="translate(14.190628, 10.727185)"><g><path d="M 0.484375 0 L 0.484375 -0.5 L 0.015625 -1.28125 L 0.21875 -1.28125 L 0.578125 -0.65625 L 0.921875 -1.28125 L 1.125 -1.28125 L 0.65625 -0.5 L 0.65625 0 Z M 0.484375 0 "/></g></g></g><g fill="#ffffff" fill-opacity="1"><g transform="translate(25.153336, 10.727185)"><g><path d="M 0.140625 0 L 0.140625 -1.28125 L 0.65625 -1.28125 C 0.75 -1.28125 0.828125 -1.265625 0.890625 -1.234375 C 0.953125 -1.203125 0.992188 -1.160156 1.015625 -1.109375 C 1.046875 -1.066406 1.0625 -1.019531 1.0625 -0.96875 C 1.0625 -0.914062 1.046875 -0.863281 1.015625 -0.8125 C 0.992188 -0.757812 0.960938 -0.71875 0.921875 -0.6875 C 0.984375 -0.644531 1.03125 -0.597656 1.0625 -0.546875 C 1.09375 -0.492188 1.109375 -0.4375 1.109375 -0.375 C 1.109375 -0.3125 1.09375 -0.25 1.0625 -0.1875 C 1.03125 -0.132812 0.984375 -0.0859375 0.921875 -0.046875 C 0.859375 -0.015625 0.78125 0 0.6875 0 Z M 0.328125 -0.734375 L 0.6875 -0.734375 C 0.75 -0.734375 0.796875 -0.753906 0.828125 -0.796875 C 0.859375 -0.835938 0.875 -0.882812 0.875 -0.9375 C 0.875 -0.96875 0.863281 -1 0.84375 -1.03125 C 0.832031 -1.0625 0.8125 -1.082031 0.78125 -1.09375 C 0.757812 -1.113281 0.726562 -1.125 0.6875 -1.125 L 0.328125 -1.125 Z M 0.328125 -0.15625 L 0.71875 -0.15625 C 0.757812 -0.15625 0.796875 -0.164062 0.828125 -0.1875 C 0.859375 -0.207031 0.882812 -0.234375 0.90625 -0.265625 C 0.925781 -0.296875 0.9375 -0.332031 0.9375 -0.375 C 0.9375 -0.414062 0.925781 -0.453125 0.90625 -0.484375 C 0.882812 -0.515625 0.859375 -0.539062 0.828125 -0.5625 C 0.796875 -0.582031 0.757812 -0.59375 0.71875 -0.59375 L 0.328125 -0.59375 Z M 0.328125 -0.15625 "/></g></g></g><g fill="#ffffff" fill-opacity="1"><g transform="translate(26.34713, 10.727185)"><g><path d="M 0.703125 0.015625 C 0.578125 0.015625 0.46875 -0.0078125 0.375 -0.0625 C 0.289062 -0.113281 0.222656 -0.191406 0.171875 -0.296875 C 0.117188 -0.398438 0.09375 -0.515625 0.09375 -0.640625 C 0.09375 -0.773438 0.117188 -0.890625 0.171875 -0.984375 C 0.222656 -1.085938 0.289062 -1.164062 0.375 -1.21875 C 0.46875 -1.28125 0.578125 -1.3125 0.703125 -1.3125 C 0.828125 -1.3125 0.929688 -1.28125 1.015625 -1.21875 C 1.109375 -1.164062 1.175781 -1.085938 1.21875 -0.984375 C 1.269531 -0.890625 1.296875 -0.773438 1.296875 -0.640625 C 1.296875 -0.515625 1.269531 -0.398438 1.21875 -0.296875 C 1.175781 -0.191406 1.109375 -0.113281 1.015625 -0.0625 C 0.929688 -0.0078125 0.828125 0.015625 0.703125 0.015625 Z M 0.703125 -0.125 C 0.773438 -0.125 0.84375 -0.144531 0.90625 -0.1875 C 0.96875 -0.226562 1.015625 -0.285156 1.046875 -0.359375 C 1.085938 -0.441406 1.109375 -0.535156 1.109375 -0.640625 C 1.109375 -0.753906 1.085938 -0.847656 1.046875 -0.921875 C 1.015625 -0.992188 0.96875 -1.050781 0.90625 -1.09375 C 0.84375 -1.132812 0.773438 -1.15625 0.703125 -1.15625 C 0.617188 -1.15625 0.546875 -1.132812 0.484375 -1.09375 C 0.421875 -1.050781 0.367188 -0.992188 0.328125 -0.921875 C 0.296875 -0.847656 0.28125 -0.753906 0.28125 -0.640625 C 0.28125 -0.535156 0.296875 -0.441406 0.328125 -0.359375 C 0.367188 -0.285156 0.421875 -0.226562 0.484375 -0.1875 C 0.546875 -0.144531 0.617188 -0.125 0.703125 -0.125 Z M 0.703125 -0.125 "/></g></g></g><g fill="#ffffff" fill-opacity="1"><g transform="translate(27.749211, 10.727185)"><g><path d="M 0.65625 0.015625 C 0.476562 0.015625 0.347656 -0.0234375 0.265625 -0.109375 C 0.179688 -0.203125 0.140625 -0.34375 0.140625 -0.53125 L 0.140625 -1.28125 L 0.328125 -1.28125 L 0.328125 -0.515625 C 0.328125 -0.390625 0.351562 -0.289062 0.40625 -0.21875 C 0.457031 -0.15625 0.539062 -0.125 0.65625 -0.125 C 0.78125 -0.125 0.867188 -0.15625 0.921875 -0.21875 C 0.972656 -0.289062 1 -0.390625 1 -0.515625 L 1 -1.28125 L 1.1875 -1.28125 L 1.1875 -0.53125 C 1.1875 -0.34375 1.144531 -0.203125 1.0625 -0.109375 C 0.976562 -0.0234375 0.84375 0.015625 0.65625 0.015625 Z M 0.65625 0.015625 "/></g></g></g><g fill="#ffffff" fill-opacity="1"><g transform="translate(29.079935, 10.727185)"><g><path d="M 0.453125 0 L 0.453125 -1.125 L 0.015625 -1.125 L 0.015625 -1.28125 L 1.046875 -1.28125 L 1.046875 -1.125 L 0.625 -1.125 L 0.625 0 Z M 0.453125 0 "/></g></g></g><g fill="#ffffff" fill-opacity="1"><g transform="translate(30.156085, 10.727185)"><g><path d="M 0.125 0 L 0.125 -0.140625 L 0.3125 -0.140625 L 0.3125 -1.140625 L 0.125 -1.140625 L 0.125 -1.28125 L 0.671875 -1.28125 L 0.671875 -1.140625 L 0.484375 -1.140625 L 0.484375 -0.140625 L 0.671875 -0.140625 L 0.671875 0 Z M 0.125 0 "/></g></g></g><g fill="#ffffff" fill-opacity="1"><g transform="translate(30.954519, 10.727185)"><g><path d="M 1.328125 0.078125 L 1.09375 -0.125 C 1.050781 -0.0703125 0.992188 -0.0351562 0.921875 -0.015625 C 0.859375 0.00390625 0.785156 0.015625 0.703125 0.015625 C 0.578125 0.015625 0.46875 -0.0078125 0.375 -0.0625 C 0.289062 -0.113281 0.222656 -0.191406 0.171875 -0.296875 C 0.117188 -0.398438 0.09375 -0.515625 0.09375 -0.640625 C 0.09375 -0.773438 0.117188 -0.890625 0.171875 -0.984375 C 0.222656 -1.085938 0.289062 -1.164062 0.375 -1.21875 C 0.46875 -1.28125 0.578125 -1.3125 0.703125 -1.3125 C 0.828125 -1.3125 0.929688 -1.28125 1.015625 -1.21875 C 1.109375 -1.164062 1.175781 -1.085938 1.21875 -0.984375 C 1.269531 -0.890625 1.296875 -0.773438 1.296875 -0.640625 C 1.296875 -0.566406 1.285156 -0.5 1.265625 -0.4375 C 1.253906 -0.375 1.234375 -0.316406 1.203125 -0.265625 L 1.453125 -0.046875 Z M 0.703125 -0.125 C 0.804688 -0.125 0.894531 -0.160156 0.96875 -0.234375 L 0.625 -0.5625 L 0.75 -0.703125 L 1.078125 -0.390625 C 1.085938 -0.429688 1.09375 -0.472656 1.09375 -0.515625 C 1.101562 -0.554688 1.109375 -0.597656 1.109375 -0.640625 C 1.109375 -0.753906 1.085938 -0.847656 1.046875 -0.921875 C 1.015625 -0.992188 0.96875 -1.050781 0.90625 -1.09375 C 0.84375 -1.132812 0.773438 -1.15625 0.703125 -1.15625 C 0.617188 -1.15625 0.546875 -1.132812 0.484375 -1.09375 C 0.421875 -1.050781 0.367188 -0.992188 0.328125 -0.921875 C 0.296875 -0.847656 0.28125 -0.753906 0.28125 -0.640625 C 0.28125 -0.535156 0.296875 -0.441406 0.328125 -0.359375 C 0.367188 -0.285156 0.421875 -0.226562 0.484375 -0.1875 C 0.546875 -0.144531 0.617188 -0.125 0.703125 -0.125 Z M 0.703125 -0.125 "/></g></g></g><g fill="#ffffff" fill-opacity="1"><g transform="translate(32.406742, 10.727185)"><g><path d="M 0.65625 0.015625 C 0.476562 0.015625 0.347656 -0.0234375 0.265625 -0.109375 C 0.179688 -0.203125 0.140625 -0.34375 0.140625 -0.53125 L 0.140625 -1.28125 L 0.328125 -1.28125 L 0.328125 -0.515625 C 0.328125 -0.390625 0.351562 -0.289062 0.40625 -0.21875 C 0.457031 -0.15625 0.539062 -0.125 0.65625 -0.125 C 0.78125 -0.125 0.867188 -0.15625 0.921875 -0.21875 C 0.972656 -0.289062 1 -0.390625 1 -0.515625 L 1 -1.28125 L 1.1875 -1.28125 L 1.1875 -0.53125 C 1.1875 -0.34375 1.144531 -0.203125 1.0625 -0.109375 C 0.976562 -0.0234375 0.84375 0.015625 0.65625 0.015625 Z M 0.65625 0.015625 "/></g></g></g><g fill="#ffffff" fill-opacity="1"><g transform="translate(33.737466, 10.727185)"><g><path d="M 0.140625 0 L 0.140625 -1.28125 L 1.015625 -1.28125 L 1.015625 -1.125 L 0.328125 -1.125 L 0.328125 -0.734375 L 0.84375 -0.734375 L 0.84375 -0.578125 L 0.328125 -0.578125 L 0.328125 -0.15625 L 1.015625 -0.15625 L 1.015625 0 Z M 0.140625 0 "/></g></g></g></svg>