<svg xmlns="http://www.w3.org/2000/svg" xmlns:xlink="http://www.w3.org/1999/xlink" width="120" zoomAndPan="magnify" viewBox="0 0 90 44.999999" height="60" preserveAspectRatio="xMidYMid meet" version="1.0"><defs><g/></defs><g fill="#4255ff" fill-opacity="1"><g transform="translate(0.000001, 32.236488)"><g><path d="M 10.59375 -13.109375 C 11.695312 -13.109375 12.515625 -13.382812 13.046875 -13.9375 C 13.578125 -14.488281 13.84375 -15.269531 13.84375 -16.28125 L 14.203125 -16.28125 C 14.203125 -15.707031 14.195312 -15.234375 14.1875 -14.859375 C 14.175781 -14.492188 14.164062 -14.1875 14.15625 -13.9375 C 14.144531 -13.695312 14.128906 -13.488281 14.109375 -13.3125 C 14.097656 -13.144531 14.09375 -12.960938 14.09375 -12.765625 C 14.09375 -12.566406 14.097656 -12.390625 14.109375 -12.234375 C 14.128906 -12.078125 14.144531 -11.878906 14.15625 -11.640625 C 14.164062 -11.410156 14.175781 -11.113281 14.1875 -10.75 C 14.195312 -10.394531 14.203125 -9.9375 14.203125 -9.375 L 13.84375 -9.375 C 13.84375 -10.332031 13.578125 -11.085938 13.046875 -11.640625 C 12.515625 -12.191406 11.695312 -12.46875 10.59375 -12.46875 L 8.078125 -12.46875 L 8.078125 -4.46875 C 8.078125 -3.582031 8.15625 -2.875 8.3125 -2.34375 C 8.476562 -1.8125 8.765625 -1.414062 9.171875 -1.15625 C 9.578125 -0.90625 10.109375 -0.738281 10.765625 -0.65625 C 11.429688 -0.582031 12.269531 -0.546875 13.28125 -0.546875 C 14.164062 -0.546875 14.992188 -0.578125 15.765625 -0.640625 C 16.546875 -0.703125 17.234375 -0.878906 17.828125 -1.171875 C 18.421875 -1.472656 18.90625 -1.9375 19.28125 -2.5625 C 19.664062 -3.1875 19.90625 -4.054688 20 -5.171875 L 20.40625 -5.171875 L 20.109375 0 C 19.003906 0.0195312 18.019531 0.0351562 17.15625 0.046875 C 16.300781 0.0664062 15.367188 0.078125 14.359375 0.078125 C 12.265625 0.078125 10.578125 0.046875 9.296875 -0.015625 C 8.015625 -0.078125 6.984375 -0.109375 6.203125 -0.109375 C 5.804688 -0.109375 5.46875 -0.101562 5.1875 -0.09375 C 4.90625 -0.0820312 4.601562 -0.0664062 4.28125 -0.046875 C 3.957031 -0.0351562 3.570312 -0.0234375 3.125 -0.015625 C 2.6875 -0.00390625 2.097656 0 1.359375 0 L 1.359375 -0.375 C 1.753906 -0.375 2.128906 -0.398438 2.484375 -0.453125 C 2.847656 -0.515625 3.164062 -0.628906 3.4375 -0.796875 C 3.707031 -0.972656 3.921875 -1.21875 4.078125 -1.53125 C 4.234375 -1.84375 4.3125 -2.253906 4.3125 -2.765625 L 4.3125 -21.921875 C 4.3125 -22.441406 4.234375 -22.851562 4.078125 -23.15625 C 3.921875 -23.46875 3.707031 -23.707031 3.4375 -23.875 C 3.164062 -24.050781 2.847656 -24.171875 2.484375 -24.234375 C 2.128906 -24.296875 1.753906 -24.328125 1.359375 -24.328125 L 1.359375 -24.6875 C 2.097656 -24.6875 2.679688 -24.679688 3.109375 -24.671875 C 3.546875 -24.660156 3.914062 -24.644531 4.21875 -24.625 C 4.53125 -24.613281 4.820312 -24.601562 5.09375 -24.59375 C 5.363281 -24.582031 5.695312 -24.578125 6.09375 -24.578125 C 6.925781 -24.578125 7.9375 -24.613281 9.125 -24.6875 C 10.320312 -24.757812 11.660156 -24.796875 13.140625 -24.796875 C 14.097656 -24.796875 14.960938 -24.785156 15.734375 -24.765625 C 16.515625 -24.742188 17.394531 -24.71875 18.375 -24.6875 L 18.59375 -19.890625 L 18.234375 -19.890625 C 18.160156 -20.828125 17.960938 -21.578125 17.640625 -22.140625 C 17.316406 -22.710938 16.882812 -23.144531 16.34375 -23.4375 C 15.800781 -23.726562 15.171875 -23.921875 14.453125 -24.015625 C 13.742188 -24.117188 12.960938 -24.171875 12.109375 -24.171875 C 11.878906 -24.171875 11.617188 -24.164062 11.328125 -24.15625 C 11.035156 -24.144531 10.738281 -24.128906 10.4375 -24.109375 C 10.144531 -24.097656 9.863281 -24.082031 9.59375 -24.0625 C 9.320312 -24.039062 9.101562 -24.015625 8.9375 -23.984375 C 8.363281 -23.910156 8.078125 -23.582031 8.078125 -23 L 8.078125 -13.109375 Z M 10.59375 -13.109375 "/></g></g></g><g fill="#4255ff" fill-opacity="1"><g transform="translate(21.322746, 32.236488)"><g><path d="M 8.046875 -15.828125 C 7.796875 -15.828125 7.460938 -15.800781 7.046875 -15.75 C 6.628906 -15.707031 6.21875 -15.628906 5.8125 -15.515625 C 5.40625 -15.410156 5.050781 -15.265625 4.75 -15.078125 C 4.457031 -14.890625 4.3125 -14.675781 4.3125 -14.4375 C 4.3125 -14.382812 4.351562 -14.238281 4.4375 -14 C 4.53125 -13.769531 4.578125 -13.472656 4.578125 -13.109375 C 4.578125 -12.804688 4.460938 -12.515625 4.234375 -12.234375 C 4.015625 -11.953125 3.695312 -11.8125 3.28125 -11.8125 C 2.988281 -11.8125 2.691406 -11.929688 2.390625 -12.171875 C 2.097656 -12.421875 1.953125 -12.828125 1.953125 -13.390625 C 1.953125 -13.960938 2.1875 -14.4375 2.65625 -14.8125 C 3.125 -15.195312 3.6875 -15.503906 4.34375 -15.734375 C 5.007812 -15.972656 5.707031 -16.140625 6.4375 -16.234375 C 7.164062 -16.335938 7.785156 -16.390625 8.296875 -16.390625 C 9.140625 -16.390625 9.9375 -16.304688 10.6875 -16.140625 C 11.4375 -15.984375 12.085938 -15.707031 12.640625 -15.3125 C 13.191406 -14.914062 13.628906 -14.382812 13.953125 -13.71875 C 14.273438 -13.0625 14.4375 -12.226562 14.4375 -11.21875 L 14.4375 -3.140625 C 14.4375 -2.941406 14.445312 -2.71875 14.46875 -2.46875 C 14.488281 -2.226562 14.535156 -1.992188 14.609375 -1.765625 C 14.679688 -1.546875 14.796875 -1.351562 14.953125 -1.1875 C 15.117188 -1.03125 15.347656 -0.953125 15.640625 -0.953125 C 15.941406 -0.953125 16.191406 -1.054688 16.390625 -1.265625 C 16.585938 -1.484375 16.742188 -1.6875 16.859375 -1.875 L 17.203125 -1.734375 C 17.148438 -1.609375 17.039062 -1.425781 16.875 -1.1875 C 16.71875 -0.957031 16.507812 -0.722656 16.25 -0.484375 C 16 -0.253906 15.691406 -0.0507812 15.328125 0.125 C 14.972656 0.3125 14.578125 0.40625 14.140625 0.40625 C 13.421875 0.40625 12.816406 0.171875 12.328125 -0.296875 C 11.835938 -0.765625 11.53125 -1.332031 11.40625 -2 C 10.539062 -1.28125 9.640625 -0.695312 8.703125 -0.25 C 7.773438 0.1875 6.734375 0.40625 5.578125 0.40625 C 5.035156 0.40625 4.523438 0.332031 4.046875 0.1875 C 3.566406 0.0390625 3.140625 -0.179688 2.765625 -0.484375 C 2.398438 -0.796875 2.101562 -1.1875 1.875 -1.65625 C 1.65625 -2.125 1.546875 -2.679688 1.546875 -3.328125 C 1.546875 -4.140625 1.765625 -4.804688 2.203125 -5.328125 C 2.648438 -5.859375 3.109375 -6.269531 3.578125 -6.5625 C 4.316406 -7.0625 5.148438 -7.5 6.078125 -7.875 C 7.015625 -8.257812 7.953125 -8.660156 8.890625 -9.078125 C 9.160156 -9.203125 9.441406 -9.332031 9.734375 -9.46875 C 10.035156 -9.601562 10.300781 -9.726562 10.53125 -9.84375 C 10.769531 -9.96875 10.960938 -10.085938 11.109375 -10.203125 C 11.253906 -10.316406 11.328125 -10.4375 11.328125 -10.5625 L 11.328125 -12.109375 C 11.328125 -12.347656 11.304688 -12.675781 11.265625 -13.09375 C 11.234375 -13.519531 11.117188 -13.9375 10.921875 -14.34375 C 10.722656 -14.75 10.394531 -15.097656 9.9375 -15.390625 C 9.488281 -15.679688 8.859375 -15.828125 8.046875 -15.828125 Z M 11.328125 -9.59375 C 10.617188 -9.226562 9.84375 -8.863281 9 -8.5 C 8.164062 -8.144531 7.441406 -7.757812 6.828125 -7.34375 C 6.109375 -6.851562 5.582031 -6.300781 5.25 -5.6875 C 4.925781 -5.070312 4.765625 -4.441406 4.765625 -3.796875 C 4.765625 -3.429688 4.8125 -3.078125 4.90625 -2.734375 C 5.007812 -2.390625 5.15625 -2.070312 5.34375 -1.78125 C 5.539062 -1.5 5.785156 -1.269531 6.078125 -1.09375 C 6.378906 -0.925781 6.738281 -0.84375 7.15625 -0.84375 C 8.019531 -0.84375 8.820312 -1.035156 9.5625 -1.421875 C 10.300781 -1.804688 10.890625 -2.226562 11.328125 -2.6875 Z M 11.328125 -9.59375 "/></g></g></g><g fill="#4255ff" fill-opacity="1"><g transform="translate(38.882651, 32.236488)"><g><path d="M 10.59375 -16.390625 C 10.59375 -15.921875 10.585938 -15.535156 10.578125 -15.234375 C 10.566406 -14.941406 10.5625 -14.625 10.5625 -14.28125 C 10.5625 -13.9375 10.566406 -13.523438 10.578125 -13.046875 C 10.585938 -12.566406 10.59375 -12.082031 10.59375 -11.59375 L 10.15625 -11.59375 C 10.15625 -12.0625 10.070312 -12.546875 9.90625 -13.046875 C 9.75 -13.546875 9.515625 -14.003906 9.203125 -14.421875 C 8.898438 -14.847656 8.507812 -15.195312 8.03125 -15.46875 C 7.550781 -15.738281 6.988281 -15.875 6.34375 -15.875 C 5.5625 -15.875 4.921875 -15.640625 4.421875 -15.171875 C 3.929688 -14.703125 3.6875 -14.144531 3.6875 -13.5 C 3.6875 -12.914062 3.851562 -12.410156 4.1875 -11.984375 C 4.519531 -11.566406 4.929688 -11.195312 5.421875 -10.875 C 5.910156 -10.5625 6.453125 -10.273438 7.046875 -10.015625 C 7.640625 -9.753906 8.179688 -9.476562 8.671875 -9.1875 C 9.773438 -8.550781 10.632812 -7.875 11.25 -7.15625 C 11.863281 -6.445312 12.171875 -5.523438 12.171875 -4.390625 C 12.171875 -3.554688 12.007812 -2.835938 11.6875 -2.234375 C 11.375 -1.628906 10.957031 -1.128906 10.4375 -0.734375 C 9.925781 -0.335938 9.347656 -0.046875 8.703125 0.140625 C 8.066406 0.335938 7.441406 0.4375 6.828125 0.4375 C 6.109375 0.4375 5.378906 0.332031 4.640625 0.125 C 3.910156 -0.0820312 3.257812 -0.394531 2.6875 -0.8125 L 2.109375 0.109375 L 1.734375 0.109375 C 1.734375 -0.429688 1.738281 -0.882812 1.75 -1.25 C 1.757812 -1.625 1.765625 -2.019531 1.765625 -2.4375 C 1.765625 -2.851562 1.753906 -3.242188 1.734375 -3.609375 C 1.710938 -3.984375 1.703125 -4.414062 1.703125 -4.90625 L 2.140625 -4.90625 C 2.140625 -4.289062 2.242188 -3.691406 2.453125 -3.109375 C 2.660156 -2.535156 2.960938 -2.023438 3.359375 -1.578125 C 3.753906 -1.140625 4.226562 -0.785156 4.78125 -0.515625 C 5.332031 -0.242188 5.953125 -0.109375 6.640625 -0.109375 C 7.015625 -0.109375 7.382812 -0.175781 7.75 -0.3125 C 8.113281 -0.445312 8.441406 -0.644531 8.734375 -0.90625 C 9.035156 -1.164062 9.285156 -1.46875 9.484375 -1.8125 C 9.679688 -2.15625 9.78125 -2.546875 9.78125 -2.984375 C 9.78125 -3.503906 9.660156 -3.953125 9.421875 -4.328125 C 9.191406 -4.710938 8.882812 -5.050781 8.5 -5.34375 C 8.125 -5.644531 7.707031 -5.910156 7.25 -6.140625 C 6.789062 -6.378906 6.34375 -6.617188 5.90625 -6.859375 C 5.382812 -7.160156 4.867188 -7.453125 4.359375 -7.734375 C 3.859375 -8.015625 3.414062 -8.351562 3.03125 -8.75 C 2.65625 -9.144531 2.347656 -9.601562 2.109375 -10.125 C 1.878906 -10.65625 1.765625 -11.289062 1.765625 -12.03125 C 1.765625 -12.695312 1.890625 -13.300781 2.140625 -13.84375 C 2.390625 -14.382812 2.722656 -14.84375 3.140625 -15.21875 C 3.554688 -15.601562 4.023438 -15.894531 4.546875 -16.09375 C 5.078125 -16.289062 5.640625 -16.390625 6.234375 -16.390625 C 7.066406 -16.390625 7.734375 -16.296875 8.234375 -16.109375 C 8.742188 -15.921875 9.1875 -15.726562 9.5625 -15.53125 L 10.265625 -16.390625 Z M 10.59375 -16.390625 "/></g></g></g><g fill="#4255ff" fill-opacity="1"><g transform="translate(52.347711, 32.236488)"><g><path d="M 7.78125 -0.21875 L 2.578125 -12.359375 C 2.378906 -12.828125 2.1875 -13.265625 2 -13.671875 C 1.820312 -14.078125 1.628906 -14.421875 1.421875 -14.703125 C 1.210938 -14.984375 0.972656 -15.203125 0.703125 -15.359375 C 0.429688 -15.523438 0.109375 -15.609375 -0.265625 -15.609375 L -0.265625 -15.984375 C 0.273438 -15.984375 0.710938 -15.972656 1.046875 -15.953125 C 1.378906 -15.941406 1.664062 -15.929688 1.90625 -15.921875 C 2.15625 -15.910156 2.390625 -15.898438 2.609375 -15.890625 C 2.835938 -15.878906 3.097656 -15.875 3.390625 -15.875 C 3.710938 -15.875 3.988281 -15.878906 4.21875 -15.890625 C 4.457031 -15.898438 4.703125 -15.910156 4.953125 -15.921875 C 5.210938 -15.929688 5.507812 -15.941406 5.84375 -15.953125 C 6.175781 -15.972656 6.601562 -15.984375 7.125 -15.984375 L 7.125 -15.609375 C 6.675781 -15.609375 6.253906 -15.523438 5.859375 -15.359375 C 5.472656 -15.203125 5.28125 -14.816406 5.28125 -14.203125 C 5.28125 -13.929688 5.34375 -13.640625 5.46875 -13.328125 L 9.375 -3.90625 L 13.28125 -12.984375 C 13.457031 -13.410156 13.546875 -13.769531 13.546875 -14.0625 C 13.546875 -14.625 13.375 -15.015625 13.03125 -15.234375 C 12.6875 -15.460938 12.242188 -15.585938 11.703125 -15.609375 L 11.703125 -15.984375 C 12.066406 -15.984375 12.359375 -15.972656 12.578125 -15.953125 C 12.804688 -15.941406 13.003906 -15.929688 13.171875 -15.921875 C 13.347656 -15.910156 13.515625 -15.898438 13.671875 -15.890625 C 13.828125 -15.878906 14.003906 -15.875 14.203125 -15.875 C 14.398438 -15.875 14.570312 -15.878906 14.71875 -15.890625 C 14.875 -15.898438 15.03125 -15.910156 15.1875 -15.921875 C 15.34375 -15.929688 15.523438 -15.941406 15.734375 -15.953125 C 15.941406 -15.972656 16.222656 -15.984375 16.578125 -15.984375 L 16.578125 -15.609375 C 15.910156 -15.585938 15.394531 -15.347656 15.03125 -14.890625 C 14.675781 -14.429688 14.316406 -13.773438 13.953125 -12.921875 L 5.71875 6.125 C 5.59375 6.414062 5.425781 6.789062 5.21875 7.25 C 5.007812 7.707031 4.773438 8.140625 4.515625 8.546875 C 4.265625 8.953125 3.984375 9.300781 3.671875 9.59375 C 3.359375 9.882812 3.054688 10.03125 2.765625 10.03125 C 2.492188 10.03125 2.265625 9.957031 2.078125 9.8125 C 1.898438 9.664062 1.8125 9.429688 1.8125 9.109375 C 1.8125 8.722656 1.984375 8.398438 2.328125 8.140625 C 2.671875 7.878906 3.113281 7.675781 3.65625 7.53125 C 3.78125 7.476562 4 7.316406 4.3125 7.046875 C 4.632812 6.773438 4.957031 6.285156 5.28125 5.578125 Z M 7.78125 -0.21875 "/></g></g></g><g fill="#4255ff" fill-opacity="1"><g transform="translate(68.653344, 32.236488)"><g><path d="M 10.59375 -13.109375 C 11.695312 -13.109375 12.515625 -13.382812 13.046875 -13.9375 C 13.578125 -14.488281 13.84375 -15.269531 13.84375 -16.28125 L 14.203125 -16.28125 C 14.203125 -15.707031 14.195312 -15.234375 14.1875 -14.859375 C 14.175781 -14.492188 14.164062 -14.1875 14.15625 -13.9375 C 14.144531 -13.695312 14.128906 -13.488281 14.109375 -13.3125 C 14.097656 -13.144531 14.09375 -12.960938 14.09375 -12.765625 C 14.09375 -12.566406 14.097656 -12.390625 14.109375 -12.234375 C 14.128906 -12.078125 14.144531 -11.878906 14.15625 -11.640625 C 14.164062 -11.410156 14.175781 -11.113281 14.1875 -10.75 C 14.195312 -10.394531 14.203125 -9.9375 14.203125 -9.375 L 13.84375 -9.375 C 13.84375 -10.332031 13.578125 -11.085938 13.046875 -11.640625 C 12.515625 -12.191406 11.695312 -12.46875 10.59375 -12.46875 L 8.078125 -12.46875 L 8.078125 -4.46875 C 8.078125 -3.582031 8.15625 -2.875 8.3125 -2.34375 C 8.476562 -1.8125 8.765625 -1.414062 9.171875 -1.15625 C 9.578125 -0.90625 10.109375 -0.738281 10.765625 -0.65625 C 11.429688 -0.582031 12.269531 -0.546875 13.28125 -0.546875 C 14.164062 -0.546875 14.992188 -0.578125 15.765625 -0.640625 C 16.546875 -0.703125 17.234375 -0.878906 17.828125 -1.171875 C 18.421875 -1.472656 18.90625 -1.9375 19.28125 -2.5625 C 19.664062 -3.1875 19.90625 -4.054688 20 -5.171875 L 20.40625 -5.171875 L 20.109375 0 C 19.003906 0.0195312 18.019531 0.0351562 17.15625 0.046875 C 16.300781 0.0664062 15.367188 0.078125 14.359375 0.078125 C 12.265625 0.078125 10.578125 0.046875 9.296875 -0.015625 C 8.015625 -0.078125 6.984375 -0.109375 6.203125 -0.109375 C 5.804688 -0.109375 5.46875 -0.101562 5.1875 -0.09375 C 4.90625 -0.0820312 4.601562 -0.0664062 4.28125 -0.046875 C 3.957031 -0.0351562 3.570312 -0.0234375 3.125 -0.015625 C 2.6875 -0.00390625 2.097656 0 1.359375 0 L 1.359375 -0.375 C 1.753906 -0.375 2.128906 -0.398438 2.484375 -0.453125 C 2.847656 -0.515625 3.164062 -0.628906 3.4375 -0.796875 C 3.707031 -0.972656 3.921875 -1.21875 4.078125 -1.53125 C 4.234375 -1.84375 4.3125 -2.253906 4.3125 -2.765625 L 4.3125 -21.921875 C 4.3125 -22.441406 4.234375 -22.851562 4.078125 -23.15625 C 3.921875 -23.46875 3.707031 -23.707031 3.4375 -23.875 C 3.164062 -24.050781 2.847656 -24.171875 2.484375 -24.234375 C 2.128906 -24.296875 1.753906 -24.328125 1.359375 -24.328125 L 1.359375 -24.6875 C 2.097656 -24.6875 2.679688 -24.679688 3.109375 -24.671875 C 3.546875 -24.660156 3.914062 -24.644531 4.21875 -24.625 C 4.53125 -24.613281 4.820312 -24.601562 5.09375 -24.59375 C 5.363281 -24.582031 5.695312 -24.578125 6.09375 -24.578125 C 6.925781 -24.578125 7.9375 -24.613281 9.125 -24.6875 C 10.320312 -24.757812 11.660156 -24.796875 13.140625 -24.796875 C 14.097656 -24.796875 14.960938 -24.785156 15.734375 -24.765625 C 16.515625 -24.742188 17.394531 -24.71875 18.375 -24.6875 L 18.59375 -19.890625 L 18.234375 -19.890625 C 18.160156 -20.828125 17.960938 -21.578125 17.640625 -22.140625 C 17.316406 -22.710938 16.882812 -23.144531 16.34375 -23.4375 C 15.800781 -23.726562 15.171875 -23.921875 14.453125 -24.015625 C 13.742188 -24.117188 12.960938 -24.171875 12.109375 -24.171875 C 11.878906 -24.171875 11.617188 -24.164062 11.328125 -24.15625 C 11.035156 -24.144531 10.738281 -24.128906 10.4375 -24.109375 C 10.144531 -24.097656 9.863281 -24.082031 9.59375 -24.0625 C 9.320312 -24.039062 9.101562 -24.015625 8.9375 -23.984375 C 8.363281 -23.910156 8.078125 -23.582031 8.078125 -23 L 8.078125 -13.109375 Z M 10.59375 -13.109375 "/></g></g></g></svg>